<?xml version="1.0" encoding="UTF-8" standalone="no"?>
<!DOCTYPE svg PUBLIC "-//W3C//DTD SVG 1.1//EN"
 "http://www.w3.org/Graphics/SVG/1.1/DTD/svg11.dtd">
<!-- Generated by graphviz version 2.46.0 (20210119.1425)
 -->
<!-- Title: dependencies Pages: 1 -->
<svg width="504pt" height="211pt"
 viewBox="0.00 0.00 504.00 211.00" xmlns="http://www.w3.org/2000/svg" xmlns:xlink="http://www.w3.org/1999/xlink">
<g id="graph0" class="graph" transform="scale(1 1) rotate(0) translate(4 207)">
<title>dependencies</title>
<polygon fill="white" stroke="transparent" points="-4,4 -4,-207 500,-207 500,4 -4,4"/>
<text text-anchor="start" x="227.01" y="-42.4" font-family="sans-serif" font-weight="bold" font-size="14.00">Legend</text>
<polygon fill="#ffffb3" stroke="transparent" points="14,-10 14,-30 34,-30 34,-10 14,-10"/>
<text text-anchor="start" x="37.63" y="-15.4" font-family="sans-serif" font-size="14.00"> &#160;Declarations</text>
<polygon fill="#8dd3c7" stroke="transparent" points="127,-10 127,-30 147,-30 147,-10 127,-10"/>
<text text-anchor="start" x="150.73" y="-15.4" font-family="sans-serif" font-size="14.00"> &#160;Module</text>
<polygon fill="#80b1d3" stroke="transparent" points="213,-10 213,-30 233,-30 233,-10 213,-10"/>
<text text-anchor="start" x="236.78" y="-15.4" font-family="sans-serif" font-size="14.00"> &#160;Bootstrap</text>
<polygon fill="#fdb462" stroke="transparent" points="310,-10 310,-30 330,-30 330,-10 310,-10"/>
<text text-anchor="start" x="333.67" y="-15.4" font-family="sans-serif" font-size="14.00"> &#160;Providers</text>
<polygon fill="#fb8072" stroke="transparent" points="406,-10 406,-30 426,-30 426,-10 406,-10"/>
<text text-anchor="start" x="429.73" y="-15.4" font-family="sans-serif" font-size="14.00"> &#160;Exports</text>
<g id="clust1" class="cluster">
<title>cluster_AppModule</title>
<polygon fill="none" stroke="black" stroke-dasharray="1,5" points="41.5,-70 41.5,-195 454.5,-195 454.5,-70 41.5,-70"/>
</g>
<g id="clust3" class="cluster">
<title>cluster_AppModule_imports</title>
<polygon fill="none" stroke="black" points="187.5,-78 187.5,-130 446.5,-130 446.5,-78 187.5,-78"/>
</g>
<g id="clust6" class="cluster">
<title>cluster_AppModule_providers</title>
<polygon fill="none" stroke="black" points="49.5,-78 49.5,-130 179.5,-130 179.5,-78 49.5,-78"/>
</g>
<!-- LeadManagerModule -->
<g id="node1" class="node">
<title>LeadManagerModule</title>
<polygon fill="#8dd3c7" stroke="black" points="438.28,-122 435.28,-126 414.28,-126 411.28,-122 300.72,-122 300.72,-86 438.28,-86 438.28,-122"/>
<text text-anchor="middle" x="369.5" y="-99.8" font-family="Times,serif" font-size="14.00">LeadManagerModule</text>
</g>
<!-- AppModule -->
<g id="node3" class="node">
<title>AppModule</title>
<polygon fill="#8dd3c7" stroke="black" points="281.16,-187 278.16,-191 257.16,-191 254.16,-187 197.84,-187 197.84,-151 281.16,-151 281.16,-187"/>
<text text-anchor="middle" x="239.5" y="-164.8" font-family="Times,serif" font-size="14.00">AppModule</text>
</g>
<!-- LeadManagerModule&#45;&gt;AppModule -->
<g id="edge1" class="edge">
<title>LeadManagerModule&#45;&gt;AppModule</title>
<path fill="none" stroke="black" d="M369.5,-122.11C369.5,-141.34 369.5,-169 369.5,-169 369.5,-169 291.35,-169 291.35,-169"/>
<polygon fill="black" stroke="black" points="291.35,-165.5 281.35,-169 291.35,-172.5 291.35,-165.5"/>
</g>
<!-- LeadModule -->
<g id="node2" class="node">
<title>LeadModule</title>
<polygon fill="#8dd3c7" stroke="black" points="283.03,-122 280.03,-126 259.03,-126 256.03,-122 195.97,-122 195.97,-86 283.03,-86 283.03,-122"/>
<text text-anchor="middle" x="239.5" y="-99.8" font-family="Times,serif" font-size="14.00">LeadModule</text>
</g>
<!-- LeadModule&#45;&gt;AppModule -->
<g id="edge2" class="edge">
<title>LeadModule&#45;&gt;AppModule</title>
<path fill="none" stroke="black" d="M239.5,-122.11C239.5,-122.11 239.5,-140.99 239.5,-140.99"/>
<polygon fill="black" stroke="black" points="236,-140.99 239.5,-150.99 243,-140.99 236,-140.99"/>
</g>
<!-- AppService -->
<g id="node4" class="node">
<title>AppService</title>
<ellipse fill="#fdb462" stroke="black" cx="114.5" cy="-104" rx="56.74" ry="18"/>
<text text-anchor="middle" x="114.5" y="-99.8" font-family="Times,serif" font-size="14.00">AppService</text>
</g>
<!-- AppService&#45;&gt;AppModule -->
<g id="edge3" class="edge">
<title>AppService&#45;&gt;AppModule</title>
<path fill="none" stroke="black" d="M114.5,-122.11C114.5,-141.34 114.5,-169 114.5,-169 114.5,-169 187.53,-169 187.53,-169"/>
<polygon fill="black" stroke="black" points="187.53,-172.5 197.53,-169 187.53,-165.5 187.53,-172.5"/>
</g>
</g>
</svg>
