<?xml version="1.0" encoding="UTF-8" standalone="no"?>
<!DOCTYPE svg PUBLIC "-//W3C//DTD SVG 1.1//EN"
 "http://www.w3.org/Graphics/SVG/1.1/DTD/svg11.dtd">
<!-- Generated by graphviz version 2.46.0 (20210119.1425)
 -->
<!-- Title: dependencies Pages: 1 -->
<svg width="504pt" height="287pt"
 viewBox="0.00 0.00 504.00 287.00" xmlns="http://www.w3.org/2000/svg" xmlns:xlink="http://www.w3.org/1999/xlink">
<g id="graph0" class="graph" transform="scale(1 1) rotate(0) translate(4 283)">
<title>dependencies</title>
<polygon fill="white" stroke="transparent" points="-4,4 -4,-283 500,-283 500,4 -4,4"/>
<text text-anchor="start" x="227.01" y="-42.4" font-family="sans-serif" font-weight="bold" font-size="14.00">Legend</text>
<polygon fill="#ffffb3" stroke="transparent" points="14,-10 14,-30 34,-30 34,-10 14,-10"/>
<text text-anchor="start" x="37.63" y="-15.4" font-family="sans-serif" font-size="14.00"> &#160;Declarations</text>
<polygon fill="#8dd3c7" stroke="transparent" points="127,-10 127,-30 147,-30 147,-10 127,-10"/>
<text text-anchor="start" x="150.73" y="-15.4" font-family="sans-serif" font-size="14.00"> &#160;Module</text>
<polygon fill="#80b1d3" stroke="transparent" points="213,-10 213,-30 233,-30 233,-10 213,-10"/>
<text text-anchor="start" x="236.78" y="-15.4" font-family="sans-serif" font-size="14.00"> &#160;Bootstrap</text>
<polygon fill="#fdb462" stroke="transparent" points="310,-10 310,-30 330,-30 330,-10 310,-10"/>
<text text-anchor="start" x="333.67" y="-15.4" font-family="sans-serif" font-size="14.00"> &#160;Providers</text>
<polygon fill="#fb8072" stroke="transparent" points="406,-10 406,-30 426,-30 426,-10 406,-10"/>
<text text-anchor="start" x="429.73" y="-15.4" font-family="sans-serif" font-size="14.00"> &#160;Exports</text>
<g id="clust1" class="cluster">
<title>cluster_AppModule</title>
<polygon fill="none" stroke="black" stroke-dasharray="1,5" points="18.5,-146 18.5,-271 431.5,-271 431.5,-146 18.5,-146"/>
</g>
<g id="clust3" class="cluster">
<title>cluster_AppModule_imports</title>
<polygon fill="none" stroke="black" points="164.5,-154 164.5,-206 423.5,-206 423.5,-154 164.5,-154"/>
</g>
<g id="clust6" class="cluster">
<title>cluster_AppModule_providers</title>
<polygon fill="none" stroke="black" points="26.5,-154 26.5,-206 156.5,-206 156.5,-154 26.5,-154"/>
</g>
<g id="clust7" class="cluster">
<title>cluster_LeadManagerModule</title>
<polygon fill="none" stroke="black" stroke-dasharray="1,5" points="99.5,-70 99.5,-138 319.5,-138 319.5,-70 99.5,-70"/>
</g>
<g id="clust12" class="cluster">
<title>cluster_LeadManagerModule_providers</title>
<polygon fill="none" stroke="black" points="107.5,-78 107.5,-130 311.5,-130 311.5,-78 107.5,-78"/>
</g>
<g id="clust13" class="cluster">
<title>cluster_LeadModule</title>
<polygon fill="none" stroke="black" stroke-dasharray="1,5" points="327.5,-70 327.5,-138 477.5,-138 477.5,-70 327.5,-70"/>
</g>
<g id="clust18" class="cluster">
<title>cluster_LeadModule_providers</title>
<polygon fill="none" stroke="black" points="335.5,-78 335.5,-130 469.5,-130 469.5,-78 335.5,-78"/>
</g>
<!-- LeadManagerModule -->
<g id="node1" class="node">
<title>LeadManagerModule</title>
<polygon fill="#8dd3c7" stroke="black" points="310.28,-198 307.28,-202 286.28,-202 283.28,-198 172.72,-198 172.72,-162 310.28,-162 310.28,-198"/>
<text text-anchor="middle" x="241.5" y="-175.8" font-family="Times,serif" font-size="14.00">LeadManagerModule</text>
</g>
<!-- AppModule -->
<g id="node3" class="node">
<title>AppModule</title>
<polygon fill="#8dd3c7" stroke="black" points="283.16,-263 280.16,-267 259.16,-267 256.16,-263 199.84,-263 199.84,-227 283.16,-227 283.16,-263"/>
<text text-anchor="middle" x="241.5" y="-240.8" font-family="Times,serif" font-size="14.00">AppModule</text>
</g>
<!-- LeadManagerModule&#45;&gt;AppModule -->
<g id="edge1" class="edge">
<title>LeadManagerModule&#45;&gt;AppModule</title>
<path fill="none" stroke="black" d="M241.5,-198.11C241.5,-198.11 241.5,-216.99 241.5,-216.99"/>
<polygon fill="black" stroke="black" points="238,-216.99 241.5,-226.99 245,-216.99 238,-216.99"/>
</g>
<!-- LeadModule -->
<g id="node2" class="node">
<title>LeadModule</title>
<polygon fill="#8dd3c7" stroke="black" points="415.03,-198 412.03,-202 391.03,-202 388.03,-198 327.97,-198 327.97,-162 415.03,-162 415.03,-198"/>
<text text-anchor="middle" x="371.5" y="-175.8" font-family="Times,serif" font-size="14.00">LeadModule</text>
</g>
<!-- LeadModule&#45;&gt;AppModule -->
<g id="edge2" class="edge">
<title>LeadModule&#45;&gt;AppModule</title>
<path fill="none" stroke="black" d="M371.5,-198.11C371.5,-217.34 371.5,-245 371.5,-245 371.5,-245 293.35,-245 293.35,-245"/>
<polygon fill="black" stroke="black" points="293.35,-241.5 283.35,-245 293.35,-248.5 293.35,-241.5"/>
</g>
<!-- AppService -->
<g id="node4" class="node">
<title>AppService</title>
<ellipse fill="#fdb462" stroke="black" cx="91.5" cy="-180" rx="56.74" ry="18"/>
<text text-anchor="middle" x="91.5" y="-175.8" font-family="Times,serif" font-size="14.00">AppService</text>
</g>
<!-- AppService&#45;&gt;AppModule -->
<g id="edge3" class="edge">
<title>AppService&#45;&gt;AppModule</title>
<path fill="none" stroke="black" d="M91.5,-198.11C91.5,-217.34 91.5,-245 91.5,-245 91.5,-245 189.72,-245 189.72,-245"/>
<polygon fill="black" stroke="black" points="189.72,-248.5 199.72,-245 189.72,-241.5 189.72,-248.5"/>
</g>
<!-- LeadManagerService -->
<g id="node5" class="node">
<title>LeadManagerService</title>
<ellipse fill="#fdb462" stroke="black" cx="209.5" cy="-104" rx="93.72" ry="18"/>
<text text-anchor="middle" x="209.5" y="-99.8" font-family="Times,serif" font-size="14.00">LeadManagerService</text>
</g>
<!-- LeadManagerService&#45;&gt;LeadManagerModule -->
<g id="edge4" class="edge">
<title>LeadManagerService&#45;&gt;LeadManagerModule</title>
<path fill="none" stroke="black" d="M237.98,-121.25C237.98,-121.25 237.98,-151.76 237.98,-151.76"/>
<polygon fill="black" stroke="black" points="234.48,-151.76 237.98,-161.76 241.48,-151.76 234.48,-151.76"/>
</g>
<!-- LeadService -->
<g id="node6" class="node">
<title>LeadService</title>
<ellipse fill="#fdb462" stroke="black" cx="402.5" cy="-104" rx="59.09" ry="18"/>
<text text-anchor="middle" x="402.5" y="-99.8" font-family="Times,serif" font-size="14.00">LeadService</text>
</g>
<!-- LeadService&#45;&gt;LeadModule -->
<g id="edge5" class="edge">
<title>LeadService&#45;&gt;LeadModule</title>
<path fill="none" stroke="black" d="M379.24,-120.87C379.24,-120.87 379.24,-151.85 379.24,-151.85"/>
<polygon fill="black" stroke="black" points="375.74,-151.85 379.24,-161.85 382.74,-151.85 375.74,-151.85"/>
</g>
</g>
</svg>
